<svg width="21" height="18" xmlns="http://www.w3.org/2000/svg">
 <!-- Created with SVG-edit - http://svg-edit.googlecode.com/ -->

 <g>
  <title>Layer 1</title>
  <g id="svg_10">
   <path id="svg_5" d="m17.222301,10.388901c-2.086332,0 -3.777667,1.691134 -3.777667,3.7775s1.691534,3.777468 3.777667,3.777468s3.7777,-1.690901 3.7777,-3.777468s-1.691534,-3.7775 -3.7777,-3.7775zm0,5.666668c-1.043266,0 -1.888733,-0.8457 -1.888733,-1.888967s0.845467,-1.888968 1.888733,-1.888968s1.888767,0.845699 1.888767,1.888968s-0.845467,1.888967 -1.888767,1.888967z" fill="#ffffff"/>
   <path id="svg_6" d="m0,14.166401c0,2.086567 1.69134,3.777468 3.7777,3.777468s3.777667,-1.691133 3.777667,-3.777468c0,-2.086568 -1.691333,-3.7775 -3.777667,-3.7775s-3.7777,1.691134 -3.7777,3.7775zm1.88895,0c0,-1.0433 0.84567,-1.888968 1.88875,-1.888968c1.043267,0 1.888934,0.845668 1.888934,1.888968s-0.845667,1.888933 -1.888934,1.888933s-1.88875,-0.845665 -1.88875,-1.888933z" fill="#ffffff"/>
   <path id="svg_7" d="m7.808234,9.993467l-0.784367,0.784367c0.721134,0.679566 1.2264,1.584467 1.404267,2.602534l1.383466,-1.383066l-2.003366,-2.003835z" fill="#ffffff"/>
   <path id="svg_8" d="m10.544101,7.346001l-2.0034,-2.0034l-5.342611,-5.3426c-1.10649,1.10649 0.38851,4.3955 3.339211,7.346001l6.034768,6.034368c0.177666,-1.018067 0.683132,-1.922768 1.404266,-2.602534l-3.432234,-3.431833zm-0.1342,2.428433c-0.3301,0 -0.597866,-0.267533 -0.597866,-0.598267c0,-0.330133 0.267766,-0.597867 0.597866,-0.597867c0.330334,0 0.597868,0.267734 0.597868,0.597867c0,0.330733 -0.267534,0.598267 -0.597868,0.598267z" fill="#ffffff"/>
   <path id="svg_9" d="m17.801901,0l-5.342799,5.3426l-1.230834,1.231033l1.258767,1.258934c0.419367,-0.369367 0.844799,-0.767967 1.269434,-1.192567c2.197232,-2.197033 3.7151,-4.42324 3.933934,-5.634731c0.3694,0.928827 -1.285202,3.59373 -3.909135,6.217463c-0.325299,0.3255 -0.651633,0.635267 -0.974833,0.929033l0.425233,0.425467l1.230834,-1.231c2.950701,-2.950734 4.4457,-6.239744 3.339399,-7.346234z" fill="#ffffff"/>
  </g>
 </g>
</svg>
