<?xml version="1.0" encoding="utf-8"?>
<!-- Generator: Adobe Illustrator 16.0.0, SVG Export Plug-In . SVG Version: 6.00 Build 0)  -->
<!DOCTYPE svg PUBLIC "-//W3C//DTD SVG 1.1//EN" "http://www.w3.org/Graphics/SVG/1.1/DTD/svg11.dtd">
<svg version="1.1" id="Layer_1" xmlns="http://www.w3.org/2000/svg" xmlns:xlink="http://www.w3.org/1999/xlink" x="0px" y="0px"
	 width="100px" height="85.448px" viewBox="0 0 100 85.448" enable-background="new 0 0 100 85.448" xml:space="preserve">
<path fill="#010101" d="M82.011,49.471c-9.935,0-17.989,8.053-17.989,17.988s8.055,17.988,17.989,17.988S100,77.395,100,67.459
	S91.945,49.471,82.011,49.471z M82.011,76.455c-4.968,0-8.994-4.027-8.994-8.995s4.026-8.995,8.994-8.995s8.994,4.027,8.994,8.995
	S86.979,76.455,82.011,76.455z"/>
<path fill="#010101" d="M0,67.459c0,9.936,8.054,17.988,17.989,17.988s17.989-8.053,17.989-17.988
	c0-9.936-8.054-17.988-17.989-17.988S0,57.524,0,67.459z M8.995,67.459c0-4.968,4.027-8.995,8.994-8.995
	c4.968,0,8.995,4.027,8.995,8.995s-4.027,8.995-8.995,8.995S8.995,72.427,8.995,67.459z"/>
<path fill="#010101" d="M37.182,47.588l-3.735,3.735c3.434,3.236,5.84,7.545,6.687,12.393l6.588-6.586L37.182,47.588z"/>
<path fill="#010101" d="M50.21,34.981l-9.54-9.54L15.229,0c-5.269,5.269,1.85,20.931,15.901,34.981l28.737,28.735
	c0.846-4.848,3.253-9.156,6.687-12.393L50.21,34.981z M49.571,46.545c-1.572,0-2.847-1.274-2.847-2.849
	c0-1.572,1.275-2.847,2.847-2.847c1.573,0,2.847,1.275,2.847,2.847C52.418,45.271,51.144,46.545,49.571,46.545z"/>
<path fill="#010101" d="M84.771,0L59.329,25.441l-5.861,5.862l5.994,5.995c1.997-1.759,4.023-3.657,6.045-5.679
	C75.97,21.157,83.198,10.556,84.24,4.787c1.759,4.423-6.12,17.113-18.615,29.607c-1.549,1.55-3.103,3.025-4.642,4.424l2.025,2.026
	l5.861-5.862C82.92,20.931,90.039,5.269,84.771,0z"/>
</svg>
